<?xml version="1.0" encoding="utf-8"?>
<!-- Generator: Adobe Illustrator 21.1.0, SVG Export Plug-In . SVG Version: 6.00 Build 0)  -->
<svg version="1.1" id="Layer_1" xmlns="http://www.w3.org/2000/svg" xmlns:xlink="http://www.w3.org/1999/xlink" x="0px" y="0px"
	 viewBox="0 0 250.2 43.3" style="enable-background:new 0 0 250.2 43.3;" xml:space="preserve">
<style type="text/css">
	.st0{fill:#636464;}
	.st1{fill:#4CAF83;}
</style>
<g>
	<g>
		<path class="st0" d="M87.1,25.1h0.2c0.4,0,0.6,0.1,0.8,0.3c0.2,0.2,0.3,0.5,0.3,0.8c0,0.4-0.1,0.7-0.3,0.9c-0.2,0.2-0.5,0.3-1,0.3
			h-3c-0.5,0-0.8-0.1-1-0.3c-0.2-0.2-0.3-0.5-0.3-0.9c0-0.4,0.1-0.7,0.3-0.8c0.2-0.2,0.5-0.3,1-0.3h0.4L84,23.9h-4.3l-0.4,1.2h0.4
			c0.5,0,0.8,0.1,1,0.3c0.2,0.2,0.3,0.4,0.3,0.8c0,0.4-0.1,0.7-0.3,0.9c-0.2,0.2-0.5,0.3-1,0.3H77c-0.5,0-0.8-0.1-1-0.3
			c-0.2-0.2-0.3-0.5-0.3-0.9c0-0.4,0.1-0.6,0.3-0.8c0.2-0.2,0.5-0.3,0.8-0.3H77l2.7-7.5h-0.8c-0.5,0-0.8-0.1-1-0.3s-0.3-0.5-0.3-0.8
			c0-0.4,0.1-0.7,0.3-0.9c0.2-0.2,0.5-0.3,1-0.3h3.8c0.6,0,1,0.3,1.3,1v0L87.1,25.1z M81.8,17.6l-1.5,4.2h2.9L81.8,17.6z"/>
		<path class="st0" d="M90.1,25.1v-7.5h-0.2c-0.4,0-0.6-0.1-0.8-0.3c-0.2-0.2-0.3-0.5-0.3-0.8c0-0.4,0.1-0.7,0.3-0.8
			c0.2-0.2,0.5-0.3,1-0.3H92h0.6c1.4,0,2.4,0.1,3.1,0.2c0.7,0.1,1.2,0.3,1.7,0.6c0.8,0.5,1.4,1.2,1.9,2.1c0.4,0.9,0.6,1.9,0.6,3.1
			c0,1.2-0.2,2.3-0.7,3.3c-0.5,0.9-1.2,1.6-2.1,2.1c-0.4,0.2-0.9,0.4-1.4,0.5c-0.5,0.1-1.4,0.1-2.5,0.1H92h-1.9
			c-0.5,0-0.8-0.1-1-0.3c-0.2-0.2-0.3-0.5-0.3-0.9c0-0.4,0.1-0.6,0.3-0.8c0.2-0.2,0.5-0.3,0.8-0.3H90.1z M92.7,17.6v7.5h0.6
			c1.3,0,2.2-0.3,2.8-0.9c0.6-0.6,0.9-1.6,0.9-2.9c0-1.3-0.3-2.2-0.9-2.8c-0.6-0.6-1.5-0.9-2.8-0.9c-0.2,0-0.3,0-0.4,0
			S92.8,17.6,92.7,17.6z"/>
		<path class="st0" d="M108,17.6v7.5h1.7c0.5,0,0.8,0.1,1,0.3c0.2,0.2,0.3,0.4,0.3,0.8c0,0.4-0.1,0.7-0.3,0.9
			c-0.2,0.2-0.5,0.3-1,0.3h-6c-0.5,0-0.8-0.1-1-0.3c-0.2-0.2-0.3-0.5-0.3-0.9c0-0.4,0.1-0.7,0.3-0.8c0.2-0.2,0.5-0.3,1-0.3h1.7v-7.5
			h-1.7c-0.5,0-0.8-0.1-1-0.3s-0.3-0.5-0.3-0.8c0-0.4,0.1-0.7,0.3-0.8c0.2-0.2,0.5-0.3,1-0.3h6c0.5,0,0.8,0.1,1,0.3
			c0.2,0.2,0.3,0.4,0.3,0.8c0,0.4-0.1,0.7-0.3,0.8c-0.2,0.2-0.5,0.3-1,0.3H108z"/>
		<path class="st0" d="M119.1,15c1.6,0,3,0.6,4.1,1.8c1.1,1.2,1.6,2.7,1.6,4.5c0,1.8-0.5,3.4-1.6,4.5c-1.1,1.2-2.4,1.8-4.1,1.8
			c-1.6,0-3-0.6-4.1-1.8c-1.1-1.2-1.6-2.7-1.6-4.5c0-1.8,0.5-3.3,1.6-4.5S117.4,15,119.1,15z M119.1,17.4c-0.9,0-1.5,0.3-2,1
			c-0.5,0.7-0.7,1.7-0.7,2.9s0.2,2.2,0.7,2.9c0.5,0.7,1.2,1.1,2,1.1c0.9,0,1.5-0.4,2-1.1c0.5-0.7,0.7-1.7,0.7-2.9
			c0-1.2-0.2-2.2-0.7-2.9C120.6,17.7,119.9,17.4,119.1,17.4z M117.3,14.4l-0.4-0.8l4.8-2.8c0,0,0,0,0.1,0c0,0,0.1,0,0.1,0
			c0.1,0,0.2,0,0.3,0.1s0.1,0.1,0.2,0.2l0.4,0.9c0,0,0,0,0,0c0,0,0,0.1,0,0.1c0,0.1,0,0.2-0.1,0.3c0,0.1-0.1,0.1-0.2,0.2L117.3,14.4
			z"/>
		<path class="st0" d="M133.9,15.6c0.1-0.2,0.2-0.4,0.3-0.4c0.1-0.1,0.3-0.1,0.6-0.1c0.4,0,0.6,0.1,0.7,0.2c0.1,0.1,0.2,0.4,0.2,0.9
			l0,1.9v0.1c0,0.4-0.1,0.7-0.2,0.8s-0.4,0.2-0.8,0.2c-0.5,0-0.8-0.3-1.1-0.8c0-0.1-0.1-0.1-0.1-0.2c-0.2-0.4-0.5-0.7-0.8-0.9
			S132,17,131.6,17c-0.6,0-1.1,0.1-1.5,0.4c-0.4,0.3-0.6,0.6-0.6,1.1c0,0.6,0.9,1.1,2.6,1.5c0.3,0.1,0.5,0.1,0.7,0.1
			c1.3,0.3,2.2,0.7,2.8,1.3c0.6,0.6,0.9,1.4,0.9,2.4c0,1.2-0.4,2.2-1.3,2.9c-0.8,0.7-2,1-3.6,1c-0.6,0-1.2,0-1.6-0.1
			c-0.5-0.1-0.9-0.2-1.4-0.4c-0.1,0.2-0.2,0.3-0.4,0.4c-0.1,0.1-0.3,0.1-0.6,0.1c-0.4,0-0.7-0.1-0.9-0.2s-0.3-0.4-0.3-0.9l0-2.4V24
			c0-0.4,0.1-0.8,0.2-0.9c0.2-0.2,0.5-0.3,0.9-0.3c0.4,0,0.8,0.3,1.1,0.9c0.1,0.2,0.1,0.3,0.2,0.4c0.3,0.5,0.6,0.9,1.1,1.2
			c0.5,0.3,1,0.4,1.7,0.4c0.6,0,1.1-0.1,1.4-0.4c0.3-0.3,0.5-0.6,0.5-1.1c0-0.7-0.8-1.3-2.3-1.6c-0.5-0.1-0.8-0.2-1.1-0.3
			c-1.3-0.3-2.2-0.8-2.7-1.3c-0.5-0.5-0.8-1.2-0.8-2.1c0-1.1,0.4-2.1,1.3-2.8c0.9-0.7,2-1.1,3.3-1.1c0.5,0,0.9,0,1.3,0.1
			C133.1,15.3,133.5,15.4,133.9,15.6z"/>
		<path class="st0" d="M151.2,27.5l-0.8,0.8c0.3-0.1,0.6-0.2,0.8-0.2c0.3,0,0.6-0.1,0.8-0.1c0.5,0,1.1,0.1,1.7,0.2
			c0.6,0.2,0.9,0.2,1.1,0.2c0.2,0,0.5-0.1,0.8-0.2c0.3-0.1,0.6-0.2,0.7-0.2c0.2,0,0.5,0.1,0.6,0.3c0.2,0.2,0.2,0.4,0.2,0.7
			c0,0.4-0.2,0.7-0.7,1c-0.5,0.3-1,0.4-1.7,0.4c-0.4,0-1-0.1-1.7-0.3c-0.7-0.2-1.2-0.3-1.5-0.3c-0.5,0-1,0.1-1.6,0.4
			c-0.6,0.3-1,0.4-1.1,0.4c-0.3,0-0.5-0.1-0.7-0.3c-0.2-0.2-0.3-0.4-0.3-0.7c0-0.2,0.1-0.4,0.2-0.6c0.1-0.2,0.4-0.5,0.7-0.8l1-1
			c-1.1-0.4-2-1.1-2.7-2.2c-0.7-1.1-1-2.3-1-3.7c0-1.8,0.5-3.3,1.6-4.5c1.1-1.2,2.4-1.7,4.1-1.7c1.7,0,3,0.6,4.1,1.7
			c1.1,1.2,1.6,2.6,1.6,4.5c0,1.8-0.5,3.3-1.6,4.5c-1.1,1.2-2.4,1.8-4,1.8c-0.1,0-0.2,0-0.3,0C151.4,27.5,151.3,27.5,151.2,27.5z
			 M151.7,17.4c-0.9,0-1.5,0.3-2,1c-0.5,0.7-0.7,1.7-0.7,2.9s0.2,2.2,0.7,2.9s1.2,1.1,2,1.1c0.9,0,1.5-0.4,2-1.1
			c0.5-0.7,0.7-1.7,0.7-2.9c0-1.2-0.2-2.2-0.7-2.9C153.3,17.7,152.6,17.4,151.7,17.4z"/>
		<path class="st0" d="M162,17.6v5.3c0,0.9,0.2,1.6,0.5,2c0.3,0.4,0.9,0.6,1.6,0.6s1.3-0.2,1.6-0.6s0.5-1.1,0.5-2v-5.3h-0.2
			c-0.4,0-0.6-0.1-0.8-0.3c-0.2-0.2-0.3-0.5-0.3-0.8c0-0.4,0.1-0.7,0.3-0.9c0.2-0.2,0.5-0.3,1-0.3h2.5c0.5,0,0.8,0.1,1,0.3
			c0.2,0.2,0.3,0.5,0.3,0.9c0,0.4-0.1,0.6-0.3,0.8c-0.2,0.2-0.5,0.3-0.8,0.3h-0.2v5.2c0,1.7-0.4,2.9-1.1,3.7
			c-0.7,0.8-1.9,1.1-3.5,1.1c-1.7,0-2.9-0.4-3.6-1.1c-0.7-0.7-1.1-2-1.1-3.7v-5.2h-0.2c-0.4,0-0.6-0.1-0.8-0.3
			c-0.2-0.2-0.3-0.5-0.3-0.8c0-0.4,0.1-0.7,0.3-0.9c0.2-0.2,0.5-0.3,1-0.3h2.6c0.4,0,0.8,0.1,1,0.3c0.2,0.2,0.3,0.5,0.3,0.9
			c0,0.4-0.1,0.6-0.3,0.8c-0.2,0.2-0.5,0.3-0.8,0.3H162z"/>
		<path class="st0" d="M177.7,17.6v7.5h1.7c0.5,0,0.8,0.1,1,0.3c0.2,0.2,0.3,0.4,0.3,0.8c0,0.4-0.1,0.7-0.3,0.9
			c-0.2,0.2-0.5,0.3-1,0.3h-6c-0.5,0-0.8-0.1-1-0.3c-0.2-0.2-0.3-0.5-0.3-0.9c0-0.4,0.1-0.7,0.3-0.8c0.2-0.2,0.5-0.3,1-0.3h1.7v-7.5
			h-1.7c-0.5,0-0.8-0.1-1-0.3c-0.2-0.2-0.3-0.5-0.3-0.8c0-0.4,0.1-0.7,0.3-0.8c0.2-0.2,0.5-0.3,1-0.3h6c0.5,0,0.8,0.1,1,0.3
			s0.3,0.4,0.3,0.8c0,0.4-0.1,0.7-0.3,0.8c-0.2,0.2-0.5,0.3-1,0.3H177.7z"/>
		<path class="st0" d="M191.1,23.1v-5.5h-0.6c-0.4,0-0.8-0.1-1-0.3c-0.2-0.2-0.3-0.5-0.3-0.8c0-0.4,0.1-0.7,0.3-0.8
			c0.2-0.2,0.5-0.3,1-0.3h2.9c0.4,0,0.7,0.1,0.9,0.3c0.2,0.2,0.3,0.5,0.3,0.8c0,0.4-0.1,0.6-0.3,0.8c-0.2,0.2-0.4,0.3-0.8,0.3h-0.2
			v9.1c0,0.3,0,0.5-0.1,0.6c-0.1,0.1-0.2,0.1-0.5,0.1h-1c-0.3,0-0.5,0-0.7-0.1c-0.1-0.1-0.2-0.2-0.3-0.4l-4.2-7.4v5.5h0.6
			c0.4,0,0.7,0.1,0.9,0.3s0.3,0.4,0.3,0.8c0,0.4-0.1,0.7-0.3,0.9c-0.2,0.2-0.5,0.3-0.9,0.3h-2.9c-0.4,0-0.8-0.1-0.9-0.3
			c-0.2-0.2-0.3-0.5-0.3-0.9c0-0.4,0.1-0.6,0.3-0.8c0.2-0.2,0.4-0.3,0.8-0.3h0.2v-7.5h-0.2c-0.3,0-0.6-0.1-0.8-0.3
			c-0.2-0.2-0.3-0.5-0.3-0.8c0-0.4,0.1-0.7,0.3-0.8c0.2-0.2,0.5-0.3,0.9-0.3h1.6c0.4,0,0.7,0.1,0.8,0.2c0.1,0.1,0.3,0.3,0.5,0.6
			L191.1,23.1z"/>
		<path class="st0" d="M204.3,15.7c0.1-0.2,0.3-0.4,0.4-0.5c0.1-0.1,0.3-0.2,0.5-0.2c0.3,0,0.6,0.1,0.7,0.3c0.1,0.2,0.2,0.5,0.2,0.9
			l0,2.6c0,0.5-0.1,0.8-0.2,0.9c-0.1,0.2-0.4,0.2-0.8,0.2c-0.3,0-0.5-0.1-0.6-0.2c-0.1-0.1-0.3-0.4-0.4-0.7
			c-0.2-0.6-0.5-1.1-0.8-1.4s-0.9-0.4-1.6-0.4c-1,0-1.8,0.3-2.4,1c-0.5,0.7-0.8,1.7-0.8,3c0,1.3,0.3,2.3,0.8,3s1.4,1.1,2.4,1.1
			c0.7,0,1.5-0.2,2.3-0.7c0.8-0.5,1.4-0.7,1.6-0.7c0.3,0,0.5,0.1,0.7,0.3c0.2,0.2,0.3,0.5,0.3,0.8c0,0.6-0.5,1.1-1.6,1.7
			c-1,0.5-2.2,0.8-3.5,0.8c-1.8,0-3.2-0.6-4.3-1.7c-1.1-1.2-1.6-2.7-1.6-4.5c0-1.8,0.6-3.3,1.6-4.5c1.1-1.2,2.5-1.8,4.2-1.8
			c0.5,0,0.9,0.1,1.4,0.2S203.8,15.5,204.3,15.7z"/>
		<path class="st0" d="M216.4,17.5h-4.7v2.6h1.8V20c0-0.4,0.1-0.7,0.3-0.9c0.2-0.2,0.4-0.3,0.8-0.3c0.3,0,0.5,0.1,0.7,0.3
			c0.2,0.2,0.3,0.4,0.3,0.6c0,0,0,0.1,0,0.1c0,0.1,0,0.1,0,0.2v2.1c0,0.4-0.1,0.8-0.2,1c-0.2,0.2-0.4,0.3-0.8,0.3
			c-0.3,0-0.6-0.1-0.8-0.3c-0.2-0.2-0.3-0.4-0.3-0.8v-0.2h-1.8v3h4.7V24c0-0.4,0.1-0.8,0.3-1c0.2-0.2,0.5-0.3,0.8-0.3
			c0.4,0,0.7,0.1,0.8,0.3c0.2,0.2,0.2,0.5,0.2,1v2.4c0,0.4-0.1,0.6-0.2,0.7c-0.1,0.1-0.4,0.2-0.8,0.2h-8.2c-0.4,0-0.8-0.1-1-0.3
			c-0.2-0.2-0.3-0.5-0.3-0.9c0-0.4,0.1-0.6,0.3-0.8c0.2-0.2,0.4-0.3,0.8-0.3h0.2v-7.5h-0.2c-0.3,0-0.6-0.1-0.8-0.3
			c-0.2-0.2-0.3-0.5-0.3-0.8c0-0.4,0.1-0.7,0.3-0.8s0.5-0.3,0.9-0.3h8.2c0.4,0,0.7,0.1,0.8,0.2c0.1,0.1,0.2,0.4,0.2,0.7v2.3
			c0,0.5-0.1,0.8-0.3,1c-0.2,0.2-0.4,0.3-0.8,0.3c-0.4,0-0.7-0.1-0.8-0.3c-0.2-0.2-0.3-0.5-0.3-1V17.5z"/>
		<path class="st0" d="M228.2,23.1v-5.5h-0.6c-0.4,0-0.8-0.1-0.9-0.3c-0.2-0.2-0.3-0.5-0.3-0.8c0-0.4,0.1-0.7,0.3-0.8
			c0.2-0.2,0.5-0.3,0.9-0.3h2.9c0.4,0,0.8,0.1,0.9,0.3c0.2,0.2,0.3,0.5,0.3,0.8c0,0.4-0.1,0.6-0.3,0.8c-0.2,0.2-0.4,0.3-0.8,0.3
			h-0.2v9.1c0,0.3,0,0.5-0.1,0.6c-0.1,0.1-0.2,0.1-0.5,0.1h-1c-0.3,0-0.5,0-0.7-0.1c-0.1-0.1-0.2-0.2-0.3-0.4l-4.2-7.4v5.5h0.6
			c0.4,0,0.7,0.1,0.9,0.3s0.3,0.4,0.3,0.8c0,0.4-0.1,0.7-0.3,0.9c-0.2,0.2-0.5,0.3-0.9,0.3h-2.9c-0.4,0-0.7-0.1-0.9-0.3
			c-0.2-0.2-0.3-0.5-0.3-0.9c0-0.4,0.1-0.6,0.3-0.8c0.2-0.2,0.4-0.3,0.8-0.3h0.2v-7.5h-0.2c-0.3,0-0.6-0.1-0.8-0.3
			c-0.2-0.2-0.3-0.5-0.3-0.8c0-0.4,0.1-0.7,0.3-0.8c0.2-0.2,0.5-0.3,0.9-0.3h1.6c0.4,0,0.7,0.1,0.8,0.2s0.3,0.3,0.5,0.6L228.2,23.1z
			"/>
		<path class="st0" d="M243.3,25.1h0.2c0.4,0,0.6,0.1,0.8,0.3c0.2,0.2,0.3,0.5,0.3,0.8c0,0.4-0.1,0.7-0.3,0.9
			c-0.2,0.2-0.5,0.3-1,0.3h-3c-0.5,0-0.8-0.1-1-0.3c-0.2-0.2-0.3-0.5-0.3-0.9c0-0.4,0.1-0.7,0.3-0.8c0.2-0.2,0.5-0.3,1-0.3h0.4
			l-0.4-1.2h-4.3l-0.4,1.2h0.4c0.5,0,0.8,0.1,1,0.3c0.2,0.2,0.3,0.4,0.3,0.8c0,0.4-0.1,0.7-0.3,0.9c-0.2,0.2-0.5,0.3-1,0.3h-2.6
			c-0.5,0-0.8-0.1-1-0.3c-0.2-0.2-0.3-0.5-0.3-0.9c0-0.4,0.1-0.6,0.3-0.8c0.2-0.2,0.5-0.3,0.8-0.3h0.2l2.7-7.5h-0.8
			c-0.5,0-0.8-0.1-1-0.3c-0.2-0.2-0.3-0.5-0.3-0.8c0-0.4,0.1-0.7,0.3-0.9c0.2-0.2,0.5-0.3,1-0.3h3.8c0.6,0,1,0.3,1.3,1v0L243.3,25.1
			z M238,17.6l-1.5,4.2h2.9L238,17.6z"/>
	</g>
	<g>
		<path class="st1" d="M64.9,8.1L29,11.4l0.1,1.5l30.1-2.7c0.5,2.2,2.5,3.9,4.8,4l0.9,10.1c-1.1,0.3-2.1,0.8-2.8,1.7
			c-0.7,0.9-1.1,2-1.2,3.1l-30.3,2.8c-0.3-1.1-0.8-2.1-1.7-2.8c-0.9-0.7-2-1.1-3.1-1.2l-0.3-3.3l-0.1-1.5l-1.5,0.1l-3.5,0.3
			l-2.8-2.9l4-0.4l-0.1-1.5l-8.1,0.7l-2.5-2.7l6.1-0.6l-0.1-1.5l-9.4,0.9l-3-3.6l19.1-1.7l4.7,7.5l1.3-0.8l-5.1-8.3L1.5,10.7
			l5.3,6.4L9,16.9l3.7,4l3-0.3l4.1,4.3l4.2-0.4l0.8,9.2l42.1-3.8L64.9,8.1z M61.8,11.8c-0.6-0.5-1-1.1-1.2-1.8l2.9-0.3l0.3,2.9
			C63.1,12.5,62.4,12.2,61.8,11.8z M26.2,32.1l-0.3-2.9c0.7,0.1,1.4,0.4,2,0.9c0.6,0.5,1,1.1,1.2,1.8L26.2,32.1z M62.3,28.8
			c0.1-0.7,0.4-1.4,0.8-2c0.5-0.6,1.1-1,1.8-1.2l0.3,2.9L62.3,28.8z"/>
		<path class="st1" d="M45.3,25.3c2.4-0.2,4.2-2.4,4-4.8c-0.1-1.2-0.7-2.2-1.6-3c-0.9-0.8-2-1.1-3.2-1c-1.2,0.1-2.2,0.7-3,1.6
			c-0.8,0.9-1.1,2-1,3.2c0.1,1.2,0.7,2.2,1.6,3c0.8,0.7,1.8,1,2.8,1C45,25.3,45.1,25.3,45.3,25.3z M41.9,21.2
			c-0.1-0.8,0.2-1.5,0.7-2.1c0.5-0.6,1.2-1,2-1c0.1,0,0.2,0,0.3,0c0.7,0,1.3,0.2,1.9,0.7c0.6,0.5,1,1.2,1,2c0.1,1.6-1,3-2.6,3.2
			C43.5,24,42.1,22.8,41.9,21.2z"/>
	</g>
</g>
</svg>
