<?xml version="1.0" encoding="utf-8"?>
<!-- Generator: Adobe Illustrator 21.1.0, SVG Export Plug-In . SVG Version: 6.00 Build 0)  -->
<svg version="1.1" id="Layer_1" xmlns="http://www.w3.org/2000/svg" xmlns:xlink="http://www.w3.org/1999/xlink" x="0px" y="0px"
	 viewBox="0 0 173.4 30" style="enable-background:new 0 0 173.4 30;" xml:space="preserve">
<style type="text/css">
	.st0{fill:#636464;}
	.st1{fill:#4CAF83;}
</style>
<g>
	<path class="st0" d="M60.2,17.1h0.1c0.2,0,0.4,0.1,0.6,0.2c0.1,0.1,0.2,0.3,0.2,0.6c0,0.3-0.1,0.5-0.2,0.6s-0.4,0.2-0.7,0.2h-2.1
		c-0.3,0-0.5-0.1-0.7-0.2c-0.1-0.1-0.2-0.3-0.2-0.6c0-0.3,0.1-0.5,0.2-0.6s0.4-0.2,0.7-0.2h0.2l-0.3-0.8h-3l-0.3,0.8h0.2
		c0.3,0,0.5,0.1,0.7,0.2c0.1,0.1,0.2,0.3,0.2,0.6c0,0.3-0.1,0.5-0.2,0.6s-0.4,0.2-0.7,0.2h-1.8c-0.3,0-0.5-0.1-0.7-0.2
		s-0.2-0.3-0.2-0.6c0-0.2,0.1-0.4,0.2-0.6c0.1-0.1,0.3-0.2,0.6-0.2h0.1l1.8-5.1h-0.5c-0.3,0-0.5-0.1-0.7-0.2s-0.2-0.3-0.2-0.6
		c0-0.3,0.1-0.5,0.2-0.6s0.4-0.2,0.7-0.2h2.6c0.4,0,0.7,0.2,0.9,0.7v0L60.2,17.1z M56.6,12l-1,2.9h2L56.6,12z"/>
	<path class="st0" d="M62.3,17.1V12h-0.1c-0.2,0-0.4-0.1-0.6-0.2s-0.2-0.3-0.2-0.6c0-0.3,0.1-0.5,0.2-0.6s0.4-0.2,0.7-0.2h1.3H64
		c1,0,1.6,0,2.1,0.1s0.8,0.2,1.1,0.4c0.6,0.3,1,0.8,1.3,1.4s0.4,1.3,0.4,2.1c0,0.8-0.2,1.6-0.5,2.2c-0.3,0.6-0.8,1.1-1.4,1.4
		c-0.3,0.1-0.6,0.3-1,0.3c-0.4,0.1-0.9,0.1-1.7,0.1h-0.8h-1.3c-0.3,0-0.5-0.1-0.7-0.2c-0.1-0.1-0.2-0.3-0.2-0.6
		c0-0.2,0.1-0.4,0.2-0.6c0.1-0.1,0.3-0.2,0.6-0.2H62.3z M64,12v5.1h0.4c0.9,0,1.5-0.2,1.9-0.6c0.4-0.4,0.6-1.1,0.6-1.9
		c0-0.9-0.2-1.5-0.6-1.9s-1-0.6-1.9-0.6c-0.1,0-0.2,0-0.2,0S64.1,12,64,12z"/>
	<path class="st0" d="M74.4,12v5.1h1.1c0.3,0,0.5,0.1,0.7,0.2c0.1,0.1,0.2,0.3,0.2,0.6c0,0.3-0.1,0.5-0.2,0.6
		c-0.1,0.1-0.4,0.2-0.7,0.2h-4.1c-0.3,0-0.5-0.1-0.7-0.2s-0.2-0.3-0.2-0.6c0-0.3,0.1-0.5,0.2-0.6s0.4-0.2,0.7-0.2h1.1V12h-1.1
		c-0.3,0-0.5-0.1-0.7-0.2s-0.2-0.3-0.2-0.6c0-0.3,0.1-0.5,0.2-0.6s0.4-0.2,0.7-0.2h4.1c0.3,0,0.5,0.1,0.7,0.2s0.2,0.3,0.2,0.6
		c0,0.3-0.1,0.5-0.2,0.6S75.9,12,75.6,12H74.4z"/>
	<path class="st0" d="M82,10.3c1.1,0,2,0.4,2.8,1.2s1.1,1.8,1.1,3.1c0,1.3-0.4,2.3-1.1,3.1s-1.6,1.2-2.8,1.2c-1.1,0-2-0.4-2.8-1.2
		c-0.7-0.8-1.1-1.8-1.1-3.1c0-1.2,0.4-2.3,1.1-3.1S80.8,10.3,82,10.3z M82,11.9c-0.6,0-1,0.2-1.4,0.7s-0.5,1.1-0.5,2s0.2,1.5,0.5,2
		s0.8,0.7,1.4,0.7c0.6,0,1.1-0.2,1.4-0.7c0.3-0.5,0.5-1.1,0.5-2c0-0.8-0.2-1.5-0.5-2S82.6,11.9,82,11.9z M80.7,9.9l-0.2-0.5l3.3-1.9
		c0,0,0,0,0.1,0s0,0,0.1,0c0.1,0,0.1,0,0.2,0.1s0.1,0.1,0.1,0.2l0.3,0.6c0,0,0,0,0,0c0,0,0,0.1,0,0.1c0,0.1,0,0.1,0,0.2
		s-0.1,0.1-0.1,0.1L80.7,9.9z"/>
	<path class="st0" d="M92.1,10.7c0.1-0.1,0.1-0.2,0.2-0.3s0.2-0.1,0.4-0.1c0.3,0,0.4,0,0.5,0.1s0.1,0.3,0.1,0.6l0,1.3v0.1
		c0,0.3-0.1,0.5-0.2,0.6s-0.3,0.2-0.5,0.2c-0.3,0-0.6-0.2-0.7-0.5c0-0.1,0-0.1-0.1-0.1c-0.1-0.3-0.3-0.5-0.6-0.6s-0.5-0.2-0.9-0.2
		c-0.4,0-0.7,0.1-1,0.3s-0.4,0.4-0.4,0.7c0,0.4,0.6,0.7,1.7,1c0.2,0,0.4,0.1,0.5,0.1c0.9,0.2,1.5,0.5,1.9,0.9s0.6,0.9,0.6,1.6
		c0,0.8-0.3,1.5-0.9,1.9c-0.6,0.5-1.4,0.7-2.4,0.7c-0.4,0-0.8,0-1.1-0.1s-0.6-0.1-0.9-0.3c-0.1,0.1-0.2,0.2-0.3,0.3
		c-0.1,0.1-0.2,0.1-0.4,0.1c-0.3,0-0.5-0.1-0.6-0.2S87,18.4,87,18.1l0-1.6v-0.1c0-0.3,0.1-0.5,0.2-0.6s0.3-0.2,0.6-0.2
		c0.3,0,0.5,0.2,0.7,0.6c0,0.1,0.1,0.2,0.1,0.2c0.2,0.4,0.4,0.6,0.7,0.8s0.7,0.3,1.2,0.3c0.4,0,0.7-0.1,1-0.3s0.3-0.4,0.3-0.7
		c0-0.5-0.5-0.9-1.6-1.1c-0.3-0.1-0.6-0.1-0.7-0.2c-0.9-0.2-1.5-0.5-1.8-0.9s-0.5-0.8-0.5-1.4c0-0.8,0.3-1.4,0.9-1.9
		s1.3-0.7,2.3-0.7c0.3,0,0.6,0,0.9,0.1S91.8,10.5,92.1,10.7z"/>
	<path class="st0" d="M103.8,18.7l-0.5,0.5c0.2-0.1,0.4-0.1,0.6-0.1c0.2,0,0.4,0,0.6,0c0.4,0,0.7,0.1,1.1,0.2
		c0.4,0.1,0.6,0.2,0.7,0.2c0.1,0,0.3,0,0.6-0.1c0.2-0.1,0.4-0.1,0.5-0.1c0.2,0,0.3,0.1,0.4,0.2c0.1,0.1,0.2,0.3,0.2,0.5
		c0,0.3-0.2,0.5-0.5,0.7c-0.3,0.2-0.7,0.3-1.1,0.3c-0.3,0-0.7-0.1-1.2-0.2c-0.5-0.1-0.8-0.2-1-0.2c-0.3,0-0.7,0.1-1.1,0.3
		s-0.7,0.3-0.8,0.3c-0.2,0-0.4-0.1-0.5-0.2c-0.1-0.1-0.2-0.3-0.2-0.5c0-0.1,0-0.3,0.1-0.4c0.1-0.1,0.2-0.3,0.5-0.6l0.7-0.7
		c-0.8-0.3-1.4-0.8-1.8-1.5c-0.5-0.7-0.7-1.6-0.7-2.5c0-1.2,0.4-2.3,1.1-3s1.6-1.2,2.8-1.2c1.1,0,2.1,0.4,2.8,1.2s1.1,1.8,1.1,3
		c0,1.2-0.4,2.2-1.1,3s-1.6,1.2-2.7,1.2c-0.1,0-0.1,0-0.2,0C103.9,18.7,103.9,18.7,103.8,18.7z M104.2,11.9c-0.6,0-1,0.2-1.4,0.7
		c-0.3,0.5-0.5,1.1-0.5,2s0.2,1.5,0.5,2s0.8,0.7,1.4,0.7c0.6,0,1.1-0.2,1.4-0.7c0.3-0.5,0.5-1.1,0.5-2c0-0.8-0.2-1.5-0.5-2
		C105.2,12.1,104.8,11.9,104.2,11.9z"/>
	<path class="st0" d="M111.2,12v3.6c0,0.6,0.1,1.1,0.3,1.4c0.2,0.3,0.6,0.4,1.1,0.4s0.9-0.1,1.1-0.4s0.3-0.7,0.3-1.3V12h-0.1
		c-0.2,0-0.4-0.1-0.6-0.2c-0.1-0.1-0.2-0.3-0.2-0.6c0-0.3,0.1-0.5,0.2-0.6c0.1-0.1,0.3-0.2,0.7-0.2h1.7c0.3,0,0.5,0.1,0.7,0.2
		c0.1,0.1,0.2,0.3,0.2,0.6c0,0.2-0.1,0.4-0.2,0.6c-0.1,0.1-0.3,0.2-0.5,0.2h-0.1v3.5c0,1.1-0.2,2-0.7,2.5c-0.5,0.5-1.3,0.8-2.4,0.8
		c-1.1,0-2-0.3-2.5-0.8c-0.5-0.5-0.7-1.3-0.7-2.5V12h-0.1c-0.2,0-0.4-0.1-0.6-0.2s-0.2-0.3-0.2-0.6c0-0.3,0.1-0.5,0.2-0.6
		c0.1-0.1,0.4-0.2,0.7-0.2h1.8c0.3,0,0.5,0.1,0.7,0.2s0.2,0.3,0.2,0.6c0,0.2-0.1,0.4-0.2,0.6c-0.1,0.1-0.3,0.2-0.6,0.2H111.2z"/>
	<path class="st0" d="M121.8,12v5.1h1.1c0.3,0,0.5,0.1,0.7,0.2c0.1,0.1,0.2,0.3,0.2,0.6c0,0.3-0.1,0.5-0.2,0.6
		c-0.1,0.1-0.4,0.2-0.7,0.2h-4.1c-0.3,0-0.5-0.1-0.7-0.2c-0.1-0.1-0.2-0.3-0.2-0.6c0-0.3,0.1-0.5,0.2-0.6s0.4-0.2,0.7-0.2h1.1V12
		h-1.1c-0.3,0-0.5-0.1-0.7-0.2c-0.1-0.1-0.2-0.3-0.2-0.6c0-0.3,0.1-0.5,0.2-0.6s0.4-0.2,0.7-0.2h4.1c0.3,0,0.5,0.1,0.7,0.2
		s0.2,0.3,0.2,0.6c0,0.3-0.1,0.5-0.2,0.6S123.3,12,123,12H121.8z"/>
	<path class="st0" d="M131,15.8V12h-0.4c-0.3,0-0.5-0.1-0.6-0.2c-0.1-0.1-0.2-0.3-0.2-0.6s0.1-0.5,0.2-0.6c0.1-0.1,0.3-0.2,0.6-0.2
		h1.9c0.3,0,0.5,0.1,0.6,0.2s0.2,0.3,0.2,0.6c0,0.2-0.1,0.4-0.2,0.6c-0.1,0.1-0.3,0.2-0.5,0.2h-0.1v6.2c0,0.2,0,0.3-0.1,0.4
		s-0.1,0.1-0.3,0.1h-0.7c-0.2,0-0.4,0-0.5-0.1c-0.1,0-0.2-0.1-0.2-0.2l-2.8-5v3.7h0.4c0.3,0,0.5,0.1,0.6,0.2s0.2,0.3,0.2,0.6
		c0,0.3-0.1,0.5-0.2,0.6c-0.1,0.1-0.3,0.2-0.6,0.2h-2c-0.3,0-0.5-0.1-0.6-0.2s-0.2-0.3-0.2-0.6c0-0.2,0.1-0.4,0.2-0.6
		c0.1-0.1,0.3-0.2,0.5-0.2h0.1V12h-0.1c-0.2,0-0.4-0.1-0.5-0.2s-0.2-0.3-0.2-0.6c0-0.3,0.1-0.5,0.2-0.6c0.1-0.1,0.3-0.2,0.6-0.2h1.1
		c0.3,0,0.5,0,0.5,0.1s0.2,0.2,0.3,0.4L131,15.8z"/>
	<path class="st0" d="M139.9,10.7c0.1-0.2,0.2-0.3,0.3-0.3s0.2-0.1,0.4-0.1c0.2,0,0.4,0.1,0.5,0.2c0.1,0.1,0.1,0.3,0.1,0.6l0,1.8
		c0,0.3-0.1,0.5-0.2,0.6c-0.1,0.1-0.3,0.2-0.6,0.2c-0.2,0-0.3,0-0.4-0.1c-0.1-0.1-0.2-0.3-0.3-0.5c-0.1-0.4-0.3-0.7-0.6-0.9
		s-0.6-0.3-1.1-0.3c-0.7,0-1.2,0.2-1.6,0.7s-0.6,1.2-0.6,2.1c0,0.9,0.2,1.6,0.6,2.1s0.9,0.7,1.6,0.7c0.5,0,1-0.2,1.6-0.5
		c0.6-0.3,0.9-0.5,1.1-0.5c0.2,0,0.3,0.1,0.4,0.2c0.1,0.2,0.2,0.3,0.2,0.6c0,0.4-0.4,0.8-1.1,1.1s-1.5,0.5-2.4,0.5
		c-1.2,0-2.2-0.4-2.9-1.2s-1.1-1.8-1.1-3.1c0-1.2,0.4-2.2,1.1-3.1s1.7-1.2,2.8-1.2c0.3,0,0.6,0,1,0.1S139.6,10.6,139.9,10.7z"/>
	<path class="st0" d="M148.1,12H145v1.8h1.2v-0.1c0-0.3,0.1-0.5,0.2-0.6s0.3-0.2,0.5-0.2c0.2,0,0.4,0.1,0.5,0.2
		c0.1,0.1,0.2,0.3,0.2,0.4c0,0,0,0,0,0.1s0,0.1,0,0.2v1.4c0,0.3-0.1,0.5-0.2,0.7s-0.3,0.2-0.5,0.2c-0.2,0-0.4-0.1-0.5-0.2
		s-0.2-0.3-0.2-0.5v-0.1H145v2h3.2v-0.8c0-0.3,0.1-0.5,0.2-0.7c0.1-0.1,0.3-0.2,0.6-0.2c0.3,0,0.4,0.1,0.6,0.2
		c0.1,0.1,0.2,0.4,0.2,0.7V18c0,0.2,0,0.4-0.1,0.5s-0.3,0.1-0.6,0.1h-5.6c-0.3,0-0.5-0.1-0.6-0.2c-0.1-0.1-0.2-0.3-0.2-0.6
		c0-0.2,0.1-0.4,0.2-0.6c0.1-0.1,0.3-0.2,0.5-0.2h0.1V12h-0.1c-0.2,0-0.4-0.1-0.5-0.2c-0.1-0.1-0.2-0.3-0.2-0.6
		c0-0.3,0.1-0.5,0.2-0.6s0.3-0.2,0.6-0.2h5.6c0.3,0,0.5,0,0.6,0.1c0.1,0.1,0.1,0.3,0.1,0.5v1.5c0,0.3-0.1,0.5-0.2,0.7
		s-0.3,0.2-0.6,0.2c-0.3,0-0.5-0.1-0.6-0.2c-0.1-0.1-0.2-0.4-0.2-0.7V12z"/>
	<path class="st0" d="M156.2,15.8V12h-0.4c-0.3,0-0.5-0.1-0.6-0.2c-0.1-0.1-0.2-0.3-0.2-0.6s0.1-0.5,0.2-0.6
		c0.1-0.1,0.3-0.2,0.6-0.2h1.9c0.3,0,0.5,0.1,0.6,0.2s0.2,0.3,0.2,0.6c0,0.2-0.1,0.4-0.2,0.6c-0.1,0.1-0.3,0.2-0.5,0.2h-0.1v6.2
		c0,0.2,0,0.3-0.1,0.4s-0.1,0.1-0.3,0.1h-0.7c-0.2,0-0.4,0-0.5-0.1c-0.1,0-0.2-0.1-0.2-0.2l-2.8-5v3.7h0.4c0.3,0,0.5,0.1,0.6,0.2
		s0.2,0.3,0.2,0.6c0,0.3-0.1,0.5-0.2,0.6c-0.1,0.1-0.3,0.2-0.6,0.2h-2c-0.3,0-0.5-0.1-0.6-0.2s-0.2-0.3-0.2-0.6
		c0-0.2,0.1-0.4,0.2-0.6c0.1-0.1,0.3-0.2,0.5-0.2h0.1V12h-0.1c-0.2,0-0.4-0.1-0.5-0.2s-0.2-0.3-0.2-0.6c0-0.3,0.1-0.5,0.2-0.6
		c0.1-0.1,0.3-0.2,0.6-0.2h1.1c0.3,0,0.5,0,0.5,0.1s0.2,0.2,0.3,0.4L156.2,15.8z"/>
	<path class="st0" d="M166.4,17.1h0.1c0.2,0,0.4,0.1,0.6,0.2c0.1,0.1,0.2,0.3,0.2,0.6c0,0.3-0.1,0.5-0.2,0.6
		c-0.1,0.1-0.4,0.2-0.7,0.2h-2.1c-0.3,0-0.5-0.1-0.7-0.2c-0.1-0.1-0.2-0.3-0.2-0.6c0-0.3,0.1-0.5,0.2-0.6s0.4-0.2,0.7-0.2h0.2
		l-0.3-0.8h-3l-0.3,0.8h0.2c0.3,0,0.5,0.1,0.7,0.2c0.1,0.1,0.2,0.3,0.2,0.6c0,0.3-0.1,0.5-0.2,0.6c-0.1,0.1-0.4,0.2-0.7,0.2h-1.8
		c-0.3,0-0.5-0.1-0.7-0.2s-0.2-0.3-0.2-0.6c0-0.2,0.1-0.4,0.2-0.6c0.1-0.1,0.3-0.2,0.6-0.2h0.1l1.8-5.1h-0.5c-0.3,0-0.5-0.1-0.7-0.2
		c-0.1-0.1-0.2-0.3-0.2-0.6c0-0.3,0.1-0.5,0.2-0.6c0.1-0.1,0.4-0.2,0.7-0.2h2.6c0.4,0,0.7,0.2,0.9,0.7v0L166.4,17.1z M162.8,12
		l-1,2.9h2L162.8,12z"/>
</g>
<g>
	<path class="st1" d="M45.1,5.5L20.7,7.8l0.1,1l20.4-1.9c0.4,1.5,1.7,2.6,3.3,2.7l0.6,6.9c-0.7,0.2-1.4,0.6-1.9,1.2
		c-0.5,0.6-0.8,1.3-0.8,2.1l-20.6,1.9c-0.2-0.7-0.6-1.4-1.2-1.9c-0.6-0.5-1.3-0.8-2.1-0.8l-0.2-2.3l-0.1-1l-1,0.1L14.8,16l-1.9-2
		l2.7-0.2l-0.1-1l-5.5,0.5l-1.7-1.8l4.1-0.4l-0.1-1l-6.4,0.6L4,8.2L17,7l3.2,5.1l0.9-0.5l-3.5-5.6L2,7.3l3.6,4.3l1.5-0.1l2.5,2.7
		l2-0.2l2.8,2.9l2.9-0.3l0.6,6.3l28.6-2.6L45.1,5.5z M43,8.1c-0.4-0.3-0.7-0.8-0.8-1.2l2-0.2l0.2,2C43.9,8.6,43.4,8.4,43,8.1z
		 M18.8,21.9l-0.2-2c0.5,0.1,1,0.3,1.4,0.6c0.4,0.3,0.7,0.8,0.8,1.2L18.8,21.9z M43.4,19.7c0.1-0.5,0.2-1,0.6-1.4
		c0.3-0.4,0.8-0.7,1.2-0.8l0.2,2L43.4,19.7z"/>
	<path class="st1" d="M31.8,17.3c1.6-0.2,2.9-1.6,2.7-3.2c-0.1-0.8-0.5-1.5-1.1-2c-0.6-0.5-1.4-0.8-2.2-0.7c-0.8,0.1-1.5,0.5-2,1.1
		c-0.5,0.6-0.8,1.4-0.7,2.2c0.1,0.8,0.5,1.5,1.1,2c0.5,0.5,1.2,0.7,1.9,0.7C31.6,17.3,31.7,17.3,31.8,17.3z M29.5,14.5
		c0-0.5,0.1-1,0.5-1.5c0.3-0.4,0.8-0.7,1.3-0.7c0.1,0,0.1,0,0.2,0c0.5,0,0.9,0.2,1.3,0.5c0.4,0.3,0.7,0.8,0.7,1.3
		c0.1,1.1-0.7,2.1-1.8,2.2C30.6,16.4,29.6,15.5,29.5,14.5z"/>
</g>
</svg>
