<?xml version="1.0" standalone="no"?>
<!DOCTYPE svg PUBLIC "-//W3C//DTD SVG 20010904//EN"
 "http://www.w3.org/TR/2001/REC-SVG-20010904/DTD/svg10.dtd">
<svg version="1.0" xmlns="http://www.w3.org/2000/svg"
 width="204.000000pt" height="204.000000pt" viewBox="0 0 204.000000 204.000000"
 preserveAspectRatio="xMidYMid meet">
<metadata>
Created by potrace 1.11, written by Peter Selinger 2001-2013
</metadata>
<g transform="translate(0.000000,204.000000) scale(0.100000,-0.100000)"
fill="#000000" stroke="none">
<path d="M1825 1379 c-33 -4 -96 -10 -140 -14 -44 -3 -93 -8 -110 -10 -16 -2
-65 -7 -107 -10 -43 -4 -90 -8 -105 -10 -16 -2 -64 -6 -108 -9 -44 -4 -96 -9
-115 -11 -19 -2 -73 -7 -120 -11 -47 -4 -89 -8 -95 -9 -5 -1 -20 -3 -32 -3
-18 -2 -22 -7 -19 -24 2 -15 10 -22 22 -21 10 1 56 4 103 8 47 3 97 8 111 10
14 2 61 7 105 10 44 3 96 7 115 10 19 2 67 7 105 10 39 3 88 8 110 10 22 2 71
7 110 10 38 4 72 7 75 7 25 2 40 -5 40 -18 0 -25 64 -83 99 -90 35 -7 37 -13
46 -119 3 -38 8 -96 11 -127 5 -46 3 -58 -8 -58 -27 0 -84 -58 -97 -99 -7 -26
-18 -41 -29 -42 -59 -5 -94 -8 -152 -13 -36 -4 -87 -9 -115 -11 -27 -3 -75 -7
-105 -10 -30 -3 -80 -8 -110 -10 -30 -3 -80 -7 -110 -10 -30 -3 -82 -7 -115
-10 -33 -2 -83 -7 -111 -11 -50 -5 -52 -5 -62 24 -12 36 -69 81 -105 84 -23 2
-27 7 -28 35 -1 18 -3 38 -4 43 -1 6 -3 23 -4 40 l-1 29 -77 -5 -78 -6 -34 37
c-18 20 -31 38 -29 40 4 5 47 11 90 14 10 1 15 8 13 19 -2 9 -4 21 -4 25 -1 5
-9 6 -18 3 -10 -3 -56 -8 -103 -11 -47 -4 -87 -7 -90 -8 -17 -3 -49 17 -68 43
-21 27 -21 30 -5 31 10 1 33 3 50 5 18 2 48 5 65 7 26 2 34 7 36 26 4 24 3 24
-70 18 -40 -4 -104 -9 -143 -12 l-70 -5 -39 47 -39 48 34 7 c19 4 72 10 119
13 47 4 96 8 109 10 35 6 199 18 250 19 l45 1 61 -98 c75 -119 76 -121 98
-105 15 12 9 25 -60 136 l-77 124 -61 -6 c-33 -4 -89 -9 -125 -11 -36 -3 -86
-7 -113 -10 -73 -8 -136 -14 -212 -20 -99 -9 -159 -15 -161 -18 -1 -1 33 -44
75 -95 71 -86 78 -92 109 -89 29 3 40 -4 87 -55 52 -55 57 -58 103 -58 46 0
50 -3 105 -61 l57 -62 60 6 c33 3 62 2 64 -2 2 -3 7 -47 11 -96 4 -50 9 -101
10 -115 2 -14 4 -31 4 -39 1 -11 18 -12 87 -6 48 4 96 8 108 10 11 2 61 6 110
10 50 4 97 8 105 10 9 1 60 6 115 10 54 4 108 8 120 10 23 4 113 12 216 20 36
3 83 7 105 10 22 2 72 7 110 10 39 3 92 8 119 11 l48 6 -7 88 c-3 49 -8 99
-10 112 -2 13 -6 61 -10 108 -3 47 -8 99 -10 115 -4 26 -14 142 -19 199 -1 23
-20 25 -111 15z m66 -48 c0 -3 2 -23 5 -44 l4 -37 -30 15 c-16 8 -36 25 -45
37 -15 22 -14 23 12 28 37 8 53 8 54 1z m47 -514 c3 -35 2 -37 -27 -37 -42 0
-47 2 -43 20 5 22 44 61 56 57 6 -2 12 -20 14 -40z m-1097 -85 c38 -34 32 -52
-17 -52 -33 0 -34 1 -34 40 0 47 9 50 51 12z"/>
<path d="M1281 1122 c-65 -36 -89 -118 -51 -179 26 -44 63 -65 109 -65 75 1
117 37 131 113 19 100 -99 181 -189 131z m112 -52 c49 -39 43 -106 -12 -135
-83 -42 -162 65 -96 130 30 31 73 32 108 5z"/>
</g>
</svg>
